# xmcd CD database file
#
# Track frame offsets:
#	150
#	21153
#	51456
#	72372
#	90799
#	119767
#	146087
#	163745
#	182974
#	207817
#	223141
#	241396
#	259192
#
# Disc length: 3638 seconds
#
# Revision: 0
# Processed by: cddbd v1.5.2PL0 Copyright (c) Steve Scherf et al.
# Submitted via: CDex 1.70
#
DISCID=c90e340d
DTITLE=KENNY G - Songbird The Best Of Kenny G
DYEAR=2010
DGENRE=Jazz
TTITLE0=Brazil
TTITLE1=Havana(Tony Moran Club Mix)
TTITLE2=Jasmine Flower
TTITLE3=Asian Dream
TTITLE4=Round Midnight
TTITLE5=Desafinado
TTITLE6=It Had To Be You
TTITLE7=Paradise
TTITLE8=The Look Of Love
TTITLE9=The Wedding Song
TTITLE10=I'm In The Mood For Love
TTITLE11=Have Yourself A Merry Little Christmas
TTITLE12=Deck The Halls  - Twelve Days Of Christmas(Medley)
EXTD=YEAR: 2010
EXTT0=
EXTT1=
EXTT2=
EXTT3=
EXTT4=
EXTT5=
EXTT6=
EXTT7=
EXTT8=
EXTT9=
EXTT10=
EXTT11=
EXTT12=
PLAYORDER=
